Format                                   : Matroska
Format version                           : Version 1
File size                                : 4.36 GiB
Duration                                 : 1h 35mn
Overall bit rate                         : 6 526 Kbps
Encoded date                             : UTC 2010-03-27 23:20:26
Writing application                      : mkvmerge v2.4.0 ('Fumbling Towards Ecstasy') built on Nov  7 2008 17:24:23
Writing library                          : libebml v0.7.8 + libmatroska v0.8.1

Video
ID                                       : 1
Format                                   : AVC
Format/Info                              : Advanced Video Codec
Format profile                           : High@L4.1
Format settings, CABAC                   : Yes
Format settings, ReFrames                : 7 frames
Codec ID                                 : V_MPEG4/ISO/AVC
Duration                                 : 1h 35mn
Bit rate                                 : 5 082 Kbps
Width                                    : 1 280 pixels
Height                                   : 688 pixels
Display aspect ratio                     : 1.85:1
Frame rate mode                          : Constant
Frame rate                               : 23.976 fps
Color space                              : YUV
Chroma subsampling                       : 4:2:0
Bit depth                                : 8 bits
Scan type                                : Progressive
Bits/(Pixel*Frame)                       : 0.241
Stream size                              : 3.27 GiB (75%)
Writing library                          : x264 core 88 r1471 1144615

Audio
ID                                       : 2
Format                                   : DTS
Format/Info                              : Digital Theater Systems
Mode                                     : 16
Format settings, Endianness              : Big
Codec ID                                 : A_DTS
Duration                                 : 1h 35mn
Bit rate mode                            : Constant
Bit rate                                 : 1 509 Kbps
Channel(s)                               : 6 channels
Channel positions                        : Front: L C R, Side: L R, LFE
Sampling rate                            : 48.0 KHz
Bit depth                                : 24 bits
Compression mode                         : Lossy
Stream size                              : 1.01 GiB (23%)
Language                                 : English

Thumbnails: 
http://img268.imageshack.us/img268/2641/mortalkombatannihilatio.png